<svg xmlns="http://www.w3.org/2000/svg" width="128" height="128" viewBox="0 0 128 128">
  <g fill="none" fill-rule="evenodd">
    <circle cx="64" cy="64" r="63.5" fill="#FD8469" fill-rule="nonzero"/>
    <g transform="translate(22 33)">
      <rect width="85" height="5.902" y="39" fill="#324A5E" fill-rule="nonzero"/>
      <path fill="#FFF" fill-rule="nonzero" d="M48.6818182,41.1571429 C48.2840909,37.8071429 45.4204545,35.2547619 42,35.2547619 L42,35.2547619 C38.6590909,35.2547619 35.7954545,37.8071429 35.3181818,41.1571429 L32.4545455,63.1714286 L51.4659091,63.1714286 L48.6818182,41.1571429 Z"/>
      <ellipse cx="42" cy="41.636" fill="#324A5E" fill-rule="nonzero" rx="2.307" ry="2.313"/>
      <rect width="22.83" height="3.43" x="30.625" y="63.171" fill="#324A5E" fill-rule="nonzero"/>
      <g transform="translate(0 7)">
        <circle cx="14.3" cy="14.5" r="14.3" fill="#FFF" fill-rule="nonzero"/>
        <g fill="#324A5E" transform="translate(3 5)">
          <path fill-rule="nonzero" d="M7.09714286 9.70357143C5.61857143 5.63214286 9.39714286-.271428571 15.7385714 1.52678571 10.58-2.00178571 2.79285714 2.30714286 2.82571429 9.70357143L.887142857 9.70357143C.328571429 9.70357143.0328571429 10.3482143.394285714 10.7892857L4.50142857 15.9125C4.76428571 16.2178571 5.22428571 16.2178571 5.48714286 15.9125L9.59428571 10.7892857C9.95571429 10.3482143 9.62714286 9.70357143 9.10142857 9.70357143L7.09714286 9.70357143zM22.6714286 8.21071429L18.5314286 2.85C18.2685714 2.51071429 17.7757143 2.51071429 17.5128571 2.85L13.4057143 8.21071429C13.0771429 8.65178571 13.3728571 9.29642857 13.8985714 9.29642857L15.9028571 9.29642857C17.3814286 13.3678571 13.6028571 19.2714286 7.26142857 17.4732143 12.42 21.0017857 20.2071429 16.6928571 20.1742857 9.29642857L22.1457143 9.29642857C22.7042857 9.29642857 23.0328571 8.65178571 22.6714286 8.21071429z"/>
        </g>
      </g>
      <g fill-rule="nonzero" transform="translate(56 7)">
        <circle cx="14.5" cy="14.5" r="14.5" fill="#FFF"/>
        <circle cx="14.5" cy="14.5" r="11.5" fill="#FF7058"/>
        <rect width="17.028" height="3.941" x="6" y="13" fill="#FFF"/>
      </g>
    </g>
  </g>
</svg>
